<?xml version="1.0" encoding="UTF-8"?>
<svg width="18px" height="17px" viewBox="0 0 18 17" version="1.1" xmlns="http://www.w3.org/2000/svg" xmlns:xlink="http://www.w3.org/1999/xlink">
    <title>Icons/Property/beds</title>
    <g id="02-Apartment" stroke="none" stroke-width="1" fill="none" fill-rule="evenodd">
        <g id="02-01-01-Apartment-details" transform="translate(-23.000000, -446.000000)">
            <g id="Details" transform="translate(20.000000, 280.000000)">
                <g id="Group-3" transform="translate(0.000000, 129.000000)">
                    <g id="Bath" transform="translate(0.000000, 34.000000)">
                        <rect id="Rectangle-820-" fill-opacity="0.1" fill="#FDFDFD" opacity="0" x="0" y="0" width="24" height="24"></rect>
                        <g id="icon_hot_tub" transform="translate(2.000000, 4.000000)">
                            <g id="Слой_1" transform="translate(0.000000, 6.000000)" fill="#2E2D36">
                                <path d="M14,3.97522727e-16 L7,3.97522727e-16 L5,3.97522727e-16 L2,3.97522727e-16 C1.68742593,-0.00917287006 1.38855697,0.128400746 1.19225336,0.371817226 C0.995949748,0.615233706 0.924815362,0.936464234 1,1.24 L2,5 C2.2770618,6.09409223 3.00343789,7.02022174 4,7.55 L4,9 C4.00000002,9.55228474 4.44771526,9.99999997 5,9.99999997 C5.55228474,9.99999997 5.99999998,9.55228474 6,9 L6,8 L14,8 L14,9 C14,9.55228475 14.4477153,10 15,10 C15.5522847,10 16,9.55228475 16,9 L16,7.54 C16.9943589,7.01245643 17.7204187,6.09036058 18,5 L19,1.24 C19.0751846,0.936464234 19.0040503,0.615233706 18.8077466,0.371817226 C18.611443,0.128400746 18.3125741,-0.00917287006 18,1.72979036e-15 L14,3.97522727e-16 Z M16,4.49 C15.7704052,5.40038294 14.9384553,6.02850515 14,6 L5.93,6 C4.99154472,6.02850515 4.15959477,5.40038294 3.93,4.49 L3.32,2 L16.68,2 L16,4.49 Z" id="Shape"></path>
                            </g>
                            <path d="M7,6.99971641 L7,2.00583779 C7,0.898044167 7.89704948,0 8.99521929,0 L10.9966908,0 C12.0986199,0 12.99191,0.898533023 12.99191,1.98270236 L12.99191,1.98270236" id="Path-125" stroke="#2E2D36" stroke-width="2" stroke-linecap="round"></path>
                        </g>
                    </g>
                </g>
            </g>
        </g>
    </g>
</svg>