<?xml version="1.0" encoding="UTF-8"?>
<svg width="16px" height="16px" viewBox="0 0 16 16" version="1.1" xmlns="http://www.w3.org/2000/svg" xmlns:xlink="http://www.w3.org/1999/xlink">
    <title>Icons/Property/SQFT</title>
    <g id="02-Apartment" stroke="none" stroke-width="1" fill="none" fill-rule="evenodd">
        <g id="02-01-01-Apartment-details" transform="translate(-24.000000, -515.000000)">
            <g id="Details" transform="translate(20.000000, 280.000000)">
                <g id="Group-3" transform="translate(0.000000, 129.000000)">
                    <g id="Group" transform="translate(0.000000, 102.000000)">
                        <rect id="Rectangle-820-" fill-opacity="0.1" fill="#FDFDFD" opacity="0" x="0" y="0" width="24" height="24"></rect>
                        <path d="M18,4 C19.1045695,4 20,4.8954305 20,6 L20,6 L20,18 C20,19.1045695 19.1045695,20 18,20 L18,20 L6,20 C4.8954305,20 4,19.1045695 4,18 L4,18 L4,6 C4,4.8954305 4.8954305,4 6,4 L6,4 Z M18,6 L6,6 L6,18 L18,18 L18,6 Z M15,11 C15.5522847,11 16,11.4477153 16,12 L16,12 L16,15 C16,15.5522847 15.5522847,16 15,16 L15,16 L12,16 C11.4477153,16 11,15.5522847 11,15 C11,14.4477153 11.4477153,14 12,14 L12,14 L14,14 L14,12 C14,11.4477153 14.4477153,11 15,11 Z M12,8 C12.5522847,8 13,8.44771525 13,9 C13,9.55228475 12.5522847,10 12,10 L12,10 L10,10 L10,12 C10,12.5522847 9.55228475,13 9,13 C8.44771525,13 8,12.5522847 8,12 L8,12 L8,9 C8,8.44771525 8.44771525,8 9,8 L9,8 Z" id="Combined-Shape" fill="#2E2D36" fill-rule="nonzero"></path>
                    </g>
                </g>
            </g>
        </g>
    </g>
</svg>