<?xml version="1.0" encoding="UTF-8"?>
<svg width="20px" height="20px" viewBox="0 0 20 20" version="1.1" xmlns="http://www.w3.org/2000/svg" xmlns:xlink="http://www.w3.org/1999/xlink">
    <title>Icons/Property/SQFT</title>
    <g id="02-Apartment" stroke="none" stroke-width="1" fill="none" fill-rule="evenodd">
        <g id="02-01-01-Apartment-details" transform="translate(-22.000000, -580.000000)">
            <g id="Details" transform="translate(20.000000, 280.000000)">
                <g id="Group-3" transform="translate(0.000000, 129.000000)">
                    <g id="Group-14" transform="translate(0.000000, 170.000000)">
                        <rect id="Rectangle" x="0" y="0" width="24" height="24"></rect>
                        <path d="M19,3 C20.1045695,3 21,3.8954305 21,5 L21,5 L21,10 C21,11.5976809 19.75108,12.9036609 18.1762728,12.9949073 L18,13 L16,13 C15.4871642,13 15.0644928,13.3860402 15.0067277,13.8833789 L15,14 L15.0010222,14.0632721 C15.8631171,14.2856488 16.5,15.0684484 16.5,16 L16.5,16 L16.5,21 C16.5,22.1045695 15.6045695,23 14.5,23 L14.5,23 L13.5,23 C12.3954305,23 11.5,22.1045695 11.5,21 L11.5,21 L11.5,16 C11.5,15.0680872 12.1373769,14.2850418 12.9999808,14.0630137 L13,14 C13,12.4023191 14.24892,11.0963391 15.8237272,11.0050927 L16,11 L18,11 C18.5128358,11 18.9355072,10.6139598 18.9932723,10.1166211 L19,10 L9,10 C7.8954305,10 7,9.1045695 7,8 L7,8 L7,5 C7,3.8954305 7.8954305,3 9,3 L9,3 Z M14.5,16 L13.5,16 L13.5,21 L14.5,21 L14.5,16 Z M19,5 L9,5 L9,8 L19,8 L19,5 Z" id="Combined-Shape" fill="#2E2D36" transform="translate(14.000000, 13.000000) rotate(-45.000000) translate(-14.000000, -13.000000) "></path>
                    </g>
                </g>
            </g>
        </g>
    </g>
</svg>