<?xml version="1.0" encoding="UTF-8"?>
<svg width="64px" height="60px" viewBox="0 0 64 60" version="1.1" xmlns="http://www.w3.org/2000/svg" xmlns:xlink="http://www.w3.org/1999/xlink">
    <!-- Generator: Sketch 52.5 (67469) - http://www.bohemiancoding.com/sketch -->
    <title>Group 18</title>
    <desc>Created with Sketch.</desc>
    <g id="Property-Landings" stroke="none" stroke-width="1" fill="none" fill-rule="evenodd" stroke-linejoin="round">
        <g id="01-Landing-Apartments" transform="translate(-394.000000, -836.000000)" stroke="#FFFFFF" stroke-width="3.2">
            <g id="Group-21" transform="translate(230.000000, 788.000000)">
                <g id="Group-14">
                    <g id="shutterstock_633629336-copy">
                        <g id="Group-24">
                            <g id="Group-16" transform="translate(65.000000, 50.000000)">
                                <g id="Group-19">
                                    <g id="Group-18" transform="translate(101.000000, 0.000000)">
                                        <g id="Group-5">
                                            <polygon id="Stroke-1" points="16 56 0 56 0 20.2898551 16 15.4202899"></polygon>
                                            <polygon id="Stroke-3" points="40.8 56 16 56 16 0 40.8 4.86956522"></polygon>
                                        </g>
                                        <polygon id="Stroke-6" points="24 35.7101449 32.8 35.7101449 32.8 26.7826087 24 26.7826087"></polygon>
                                        <polygon id="Stroke-7" points="24 20.2898551 32.8 20.2898551 32.8 11.3623188 24 11.3623188"></polygon>
                                        <polygon id="Stroke-8" points="24 56 32.8 56 32.8 42.2028986 24 42.2028986"></polygon>
                                        <path d="M6,47.0724638 L10.4,47.0724638" id="Stroke-10" stroke-linecap="round"></path>
                                        <path d="M6,38.1449275 L10.4,38.1449275" id="Stroke-11" stroke-linecap="round"></path>
                                        <path d="M6,29.2173913 L10.4,29.2173913" id="Stroke-12" stroke-linecap="round"></path>
                                        <g id="Group-17" transform="translate(46.800000, 25.971014)" stroke-linecap="round">
                                            <path d="M6.8,25.1594203 L6.8,30.0289855" id="Stroke-13"></path>
                                            <polygon id="Stroke-15" points="6.63592 0 9.83592 12.173913 13.03592 24.3478261 6.63592 24.3478261 0.23592 24.3478261 3.43592 12.173913"></polygon>
                                        </g>
                                    </g>
                                </g>
                            </g>
                        </g>
                    </g>
                </g>
            </g>
        </g>
    </g>
</svg>