<svg width="38" height="38" viewBox="0 0 38 38" xmlns="http://www.w3.org/2000/svg"><g fill="none" fill-rule="evenodd"><path d="M-1-2h40v40H-1z"/><g stroke="#2E2D36" stroke-width="2"><path d="M13 34V17.995c0-1.102.902-1.995 2.009-1.995h7.982c1.11 0 2.009.893 2.009 1.995V34m8-22v20.009c0 1.1-.898 1.991-2.007 1.991H25m-12 0H7.004A1.997 1.997 0 0 1 5 32.009V12" stroke-linecap="round"/><path stroke-linecap="round" stroke-linejoin="round" d="M1 15L19 1l18 14"/><path d="M13 18.103c0-1.102.83-1.64 1.84-1.207l3.32 1.424C19.178 18.755 20 20 20 21.103v14.01c0 1.102-.83 1.639-1.84 1.207l-3.32-1.424c-1.017-.435-1.84-1.68-1.84-2.783v-14.01z"/></g></g></svg>
