<?xml version="1.0" encoding="UTF-8"?>
<svg width="14px" height="14px" viewBox="0 0 14 14" version="1.1" xmlns="http://www.w3.org/2000/svg" xmlns:xlink="http://www.w3.org/1999/xlink">
    <!-- Generator: Sketch 52.2 (67145) - http://www.bohemiancoding.com/sketch -->
    <title>iconmonstr-help-3</title>
    <desc>Created with Sketch.</desc>
    <g id="11-Payments" stroke="none" stroke-width="1" fill="none" fill-rule="evenodd">
        <g id="11-06-01-Payments-Financial-Details" transform="translate(-856.000000, -635.000000)" fill="#9C99B6" fill-rule="nonzero">
            <g id="Group-8" transform="translate(310.000000, 468.000000)">
                <g id="iconmonstr-help-3" transform="translate(546.000000, 167.000000)">
                    <path d="M7,1.16666667 C10.2165,1.16666667 12.8333333,3.7835 12.8333333,7 C12.8333333,10.2165 10.2165,12.8333333 7,12.8333333 C3.7835,12.8333333 1.16666667,10.2165 1.16666667,7 C1.16666667,3.7835 3.7835,1.16666667 7,1.16666667 Z M7,0 C3.13425,0 0,3.13425 0,7 C0,10.86575 3.13425,14 7,14 C10.86575,14 14,10.86575 14,7 C14,3.13425 10.86575,0 7,0 Z M7.72916667,9.91666667 C7.72916667,10.3191667 7.40308333,10.6458333 7,10.6458333 C6.59808333,10.6458333 6.27083333,10.3191667 6.27083333,9.91666667 C6.27083333,9.51416667 6.59808333,9.1875 7,9.1875 C7.40308333,9.1875 7.72916667,9.51416667 7.72916667,9.91666667 Z M8.54175,4.0845 C8.18708333,3.72516667 7.658,3.52741667 7.05366667,3.52741667 C5.782,3.52741667 4.9595,4.43158333 4.9595,5.83158333 L6.13258333,5.83158333 C6.13258333,4.96475 6.61616667,4.65733333 7.02975,4.65733333 C7.39958333,4.65733333 7.79216667,4.90291667 7.82541667,5.3725 C7.86158333,5.86658333 7.59791667,6.11741667 7.26425,6.43475 C6.44058333,7.21816667 6.42541667,7.59733333 6.42891667,8.45775 L7.5985,8.45775 C7.59091667,8.07041667 7.616,7.756 8.14391667,7.18725 C8.53883333,6.76141667 9.03,6.23175 9.03991667,5.42441667 C9.04633333,4.88541667 8.87425,4.42166667 8.54175,4.0845 Z" id="Shape"></path>
                </g>
            </g>
        </g>
    </g>
</svg>