<svg width="40" height="60" viewBox="0 0 40 60" xmlns="http://www.w3.org/2000/svg"><g fill="none" fill-rule="evenodd"><path stroke="#E9EAEF" stroke-width="2" stroke-linecap="round" stroke-linejoin="round" d="M11 4l-6 6 6 6"/><path d="M0 20V0h20v20z"/><path stroke="#E8EAED" stroke-width="2" stroke-linecap="round" stroke-linejoin="round" d="M29 4l6 6-6 6"/><path d="M40 20V0H20v20z"/><path stroke="#D2D4DF" stroke-width="2" stroke-linecap="round" stroke-linejoin="round" d="M11 24l-6 6 6 6"/><path d="M0 40V20h20v20z"/><path stroke="#D1CFE4" stroke-width="2" stroke-linecap="round" stroke-linejoin="round" d="M29 24l6 6-6 6"/><path d="M40 40V20H20v20z"/><path stroke="#7B53C1" stroke-width="2" stroke-linecap="round" stroke-linejoin="round" d="M11 44l-6 6 6 6"/><path d="M0 60V40h20v20z"/><path stroke="#7B53C1" stroke-width="2" stroke-linecap="round" stroke-linejoin="round" d="M29 44l6 6-6 6"/><path d="M40 60V40H20v20z"/></g></svg>
