<svg width="86" height="74" viewBox="0 0 86 74" xmlns="http://www.w3.org/2000/svg" xmlns:xlink="http://www.w3.org/1999/xlink"><defs><rect id="a" x="24" width="34" height="70" rx="1"/><mask id="d" x="-2" y="-2" width="38" height="74"><path fill="#fff" d="M22-2h38v74H22z"/><use xlink:href="#a"/></mask><rect id="b" x="60" y="15" width="22" height="55" rx="1"/><mask id="e" x="-2" y="-2" width="26" height="59"><path fill="#fff" d="M58 13h26v59H58z"/><use xlink:href="#b"/></mask><rect id="c" y="15" width="22" height="55" rx="1"/><mask id="f" x="-2" y="-2" width="26" height="59"><path fill="#fff" d="M-2 13h26v59H-2z"/><use xlink:href="#c"/></mask></defs><g fill="none" fill-rule="evenodd"><g transform="translate(2 2)" stroke="#2E2D36"><use mask="url(#d)" stroke-width="4" xlink:href="#a"/><use mask="url(#e)" stroke-width="4" xlink:href="#b"/><use mask="url(#f)" stroke-width="4" xlink:href="#c"/><path d="M23.947 17H59M23.947 8H59M23 26h36m-36 9h36m-36 9h36m-36 9h36m-36 9h36m8-47v56M7 15v56m68-56v56M15 15v56" stroke-width="2"/></g><path d="M-7-16H93V84H-7z"/></g></svg>
