<svg width="86" height="74" viewBox="0 0 86 74" xmlns="http://www.w3.org/2000/svg" xmlns:xlink="http://www.w3.org/1999/xlink"><defs><rect id="a" x="32" y="18" width="36" height="70" rx="1"/><mask id="r" x="-2" y="-2" width="40" height="74"><path fill="#fff" d="M30 16h40v74H30z"/><use xlink:href="#a"/></mask><rect id="b" x="70" y="29" width="21" height="55" rx="1"/><mask id="s" x="-2" y="-2" width="25" height="59"><path fill="#fff" d="M68 27h25v59H68z"/><use xlink:href="#b"/></mask><rect id="c" x="9" y="29" width="21" height="55" rx="1"/><mask id="t" x="-2" y="-2" width="25" height="59"><path fill="#fff" d="M7 27h25v59H7z"/><use xlink:href="#c"/></mask><path id="d" d="M0 0h3v3H0z"/><mask id="u" x="-2" y="-2" width="7" height="7"><path fill="#fff" d="M-2-2h7v7h-7z"/><use xlink:href="#d"/></mask><path id="e" d="M15 0h3v3h-3z"/><mask id="v" x="-2" y="-2" width="7" height="7"><path fill="#fff" d="M13-2h7v7h-7z"/><use xlink:href="#e"/></mask><path id="f" d="M0 0h3v3H0z"/><mask id="w" x="-2" y="-2" width="7" height="7"><path fill="#fff" d="M-2-2h7v7h-7z"/><use xlink:href="#f"/></mask><path id="g" d="M15 0h3v3h-3z"/><mask id="x" x="-2" y="-2" width="7" height="7"><path fill="#fff" d="M13-2h7v7h-7z"/><use xlink:href="#g"/></mask><path id="h" d="M0 0h3v3H0z"/><mask id="y" x="-2" y="-2" width="7" height="7"><path fill="#fff" d="M-2-2h7v7h-7z"/><use xlink:href="#h"/></mask><path id="i" d="M15 0h3v3h-3z"/><mask id="z" x="-2" y="-2" width="7" height="7"><path fill="#fff" d="M13-2h7v7h-7z"/><use xlink:href="#i"/></mask><path id="j" d="M0 0h3v3H0z"/><mask id="A" x="-2" y="-2" width="7" height="7"><path fill="#fff" d="M-2-2h7v7h-7z"/><use xlink:href="#j"/></mask><path id="k" d="M15 0h3v3h-3z"/><mask id="B" x="-2" y="-2" width="7" height="7"><path fill="#fff" d="M13-2h7v7h-7z"/><use xlink:href="#k"/></mask><path id="l" d="M0 0h3v3H0z"/><mask id="C" x="-2" y="-2" width="7" height="7"><path fill="#fff" d="M-2-2h7v7h-7z"/><use xlink:href="#l"/></mask><path id="m" d="M0 0h3v3H0z"/><mask id="D" x="-2" y="-2" width="7" height="7"><path fill="#fff" d="M-2-2h7v7h-7z"/><use xlink:href="#m"/></mask><path id="n" d="M0 0h3v3H0z"/><mask id="E" x="-2" y="-2" width="7" height="7"><path fill="#fff" d="M-2-2h7v7h-7z"/><use xlink:href="#n"/></mask><path id="o" d="M0 0h3v3H0z"/><mask id="F" x="-2" y="-2" width="7" height="7"><path fill="#fff" d="M-2-2h7v7h-7z"/><use xlink:href="#o"/></mask><path id="p" d="M0 0h3v3H0z"/><mask id="G" x="-2" y="-2" width="7" height="7"><path fill="#fff" d="M-2-2h7v7h-7z"/><use xlink:href="#p"/></mask><path id="q" d="M0 0h3v3H0z"/><mask id="H" x="-2" y="-2" width="7" height="7"><path fill="#fff" d="M-2-2h7v7h-7z"/><use xlink:href="#q"/></mask></defs><g transform="translate(-7 -16)" fill="none" fill-rule="evenodd"><use stroke="#2E2D36" mask="url(#r)" stroke-width="4" xlink:href="#a"/><use stroke="#2E2D36" mask="url(#s)" stroke-width="4" xlink:href="#b"/><use stroke="#2E2D36" mask="url(#t)" stroke-width="4" xlink:href="#c"/><g transform="translate(41 29)" stroke="#2E2D36" stroke-width="4" stroke-linejoin="round"><use mask="url(#u)" xlink:href="#d"/><use mask="url(#v)" xlink:href="#e"/></g><g transform="translate(41 44)" stroke="#2E2D36" stroke-width="4" stroke-linejoin="round"><use mask="url(#w)" xlink:href="#f"/><use mask="url(#x)" xlink:href="#g"/></g><g transform="translate(41 59)" stroke="#2E2D36" stroke-width="4" stroke-linejoin="round"><use mask="url(#y)" xlink:href="#h"/><use mask="url(#z)" xlink:href="#i"/></g><g transform="translate(41 74)" stroke="#2E2D36" stroke-width="4" stroke-linejoin="round"><use mask="url(#A)" xlink:href="#j"/><use mask="url(#B)" xlink:href="#k"/></g><g stroke="#2E2D36" stroke-width="4" stroke-linejoin="round"><use mask="url(#C)" xlink:href="#l" transform="translate(79 70)"/><use mask="url(#D)" xlink:href="#m" transform="translate(79 55)"/><use mask="url(#E)" xlink:href="#n" transform="translate(79 40)"/></g><g stroke="#2E2D36" stroke-width="4" stroke-linejoin="round"><use mask="url(#F)" xlink:href="#o" transform="translate(18 70)"/><use mask="url(#G)" xlink:href="#p" transform="translate(18 55)"/><use mask="url(#H)" xlink:href="#q" transform="translate(18 40)"/></g><path d="M0 0h100v100H0z"/></g></svg>
