<svg width="94" height="72" viewBox="0 0 94 72" xmlns="http://www.w3.org/2000/svg" xmlns:xlink="http://www.w3.org/1999/xlink"><defs><path d="M11 56h78v31.007A.99.99 0 0 1 88 88H12c-.552 0-1-.452-1-.993V56z" id="a"/><mask id="g" x="-2" y="-2" width="82" height="36"><path fill="#fff" d="M9 54h82v36H9z"/><use xlink:href="#a"/></mask><path id="b" d="M76 36h13.366l5.06 18H5.766l5.06-18H24"/><mask id="h" x="-2" y="-2" width="92.661" height="22"><path fill="#fff" d="M3.765 34h92.661v22H3.765z"/><use xlink:href="#b"/></mask><path id="c" d="M25 34.636L33 27l8 7.636V44H25z"/><mask id="i" x="-2" y="-2" width="20" height="21"><path fill="#fff" d="M23 25h20v21H23z"/><use xlink:href="#c"/></mask><path id="d" d="M59 34.636L67 27l8 7.636V44H59z"/><mask id="j" x="-2" y="-2" width="20" height="21"><path fill="#fff" d="M57 25h20v21H57z"/><use xlink:href="#d"/></mask><rect id="e" x="27" y="66" width="12" height="22" rx="1"/><mask id="k" x="-2" y="-2" width="16" height="26"><path fill="#fff" d="M25 64h16v26H25z"/><use xlink:href="#e"/></mask><rect id="f" x="61" y="66" width="12" height="22" rx="1"/><mask id="l" x="-2" y="-2" width="16" height="26"><path fill="#fff" d="M59 64h16v26H59z"/><use xlink:href="#f"/></mask></defs><g transform="translate(-3 -18)" fill="none" fill-rule="evenodd"><use stroke="#2E2D36" mask="url(#g)" stroke-width="4" xlink:href="#a"/><use stroke="#2E2D36" mask="url(#h)" stroke-width="4" stroke-linejoin="round" xlink:href="#b"/><use stroke="#2E2D36" mask="url(#i)" stroke-width="4" stroke-linejoin="round" xlink:href="#c"/><use stroke="#2E2D36" mask="url(#j)" stroke-width="4" stroke-linejoin="round" xlink:href="#d"/><use stroke="#2E2D36" mask="url(#k)" stroke-width="4" stroke-linejoin="round" transform="matrix(-1 0 0 1 66 0)" xlink:href="#e"/><use stroke="#2E2D36" mask="url(#l)" stroke-width="4" stroke-linejoin="round" transform="matrix(-1 0 0 1 134 0)" xlink:href="#f"/><path stroke="#2E2D36" stroke-width="2" stroke-linecap="round" stroke-linejoin="round" d="M16 34l17-15 17 15m0 0l17-15 17 15"/><path d="M42.306 35H57" stroke="#2E2D36" stroke-width="2"/><path d="M0 0h100v100H0z"/></g></svg>
