<svg width="94" height="75" viewBox="0 0 94 75" xmlns="http://www.w3.org/2000/svg" xmlns:xlink="http://www.w3.org/1999/xlink"><defs><path d="M11 56h78v31.007A.99.99 0 0 1 88 88H12c-.552 0-1-.452-1-.993V56z" id="a"/><mask id="g" x="-2" y="-2" width="82" height="36"><path fill="#fff" d="M9 54h82v36H9z"/><use xlink:href="#a"/></mask><path id="b" d="M65 36h24.27l5.06 18H5.67l5.06-18H34"/><mask id="h" x="-2" y="-2" width="92.661" height="22"><path fill="#fff" d="M3.67 34h92.661v22H3.67z"/><use xlink:href="#b"/></mask><path id="c" d="M21 67h10v10H21z"/><mask id="i" x="-2" y="-2" width="14" height="14"><path fill="#fff" d="M19 65h14v14H19z"/><use xlink:href="#c"/></mask><path id="d" d="M69 67h10v10H69z"/><mask id="j" x="-2" y="-2" width="14" height="14"><path fill="#fff" d="M67 65h14v14H67z"/><use xlink:href="#d"/></mask><path id="e" d="M35 36l15-12 15 12v10H35z"/><mask id="k" x="-2" y="-2" width="34" height="26"><path fill="#fff" d="M33 22h34v26H33z"/><use xlink:href="#e"/></mask><rect id="f" x="43" y="64" width="14" height="24" rx="1"/><mask id="l" x="-2" y="-2" width="18" height="28"><path fill="#fff" d="M41 62h18v28H41z"/><use xlink:href="#f"/></mask></defs><g transform="translate(-3 -15)" fill="none" fill-rule="evenodd"><use stroke="#ffffff" mask="url(#g)" stroke-width="4" xlink:href="#a"/><use stroke="#ffffff" mask="url(#h)" stroke-width="4" stroke-linejoin="round" xlink:href="#b"/><use stroke="#ffffff" mask="url(#i)" stroke-width="4" stroke-linejoin="round" xlink:href="#c"/><use stroke="#ffffff" mask="url(#j)" stroke-width="4" stroke-linejoin="round" xlink:href="#d"/><use stroke="#ffffff" mask="url(#k)" stroke-width="4" stroke-linejoin="round" xlink:href="#e"/><use stroke="#ffffff" mask="url(#l)" stroke-width="4" stroke-linejoin="round" transform="matrix(-1 0 0 1 100 0)" xlink:href="#f"/><path stroke="#ffffff" stroke-width="2" stroke-linecap="round" stroke-linejoin="round" d="M26 35l24-19 24 19"/><path d="M0 0h100v100H0z"/></g></svg>
