<svg width="86" height="74" viewBox="0 0 86 74" xmlns="http://www.w3.org/2000/svg"><g stroke="#2E2D36" stroke-width="2" fill="none" fill-rule="evenodd"><path d="M3 9.005C3 7.9 3.887 7 4.996 7h49.008C55.11 7 56 7.894 56 9.005V73H4.996A1.996 1.996 0 0 1 3 70.995V9.005z"/><path stroke-linejoin="round" d="M1 1h58v6H1zm55 22h29v6H56z"/><path d="M56 29h25.005c1.102 0 1.995.892 1.995 1.997v40.006c0 1.1-.9 1.997-1.995 1.997H56V29z"/><path d="M4 29h52M4 51h79" stroke-linecap="round"/><path stroke-linejoin="round" d="M16 13h7v10h-7z"/><path d="M24 13h-9" stroke-linecap="round"/><path stroke-linejoin="round" d="M16 35h7v10h-7z"/><path d="M24 35h-9" stroke-linecap="round"/><path stroke-linejoin="round" d="M16 57h7v10h-7z"/><path d="M24 57h-9" stroke-linecap="round"/><path stroke-linejoin="round" d="M36 13h7v10h-7z"/><path d="M44 13h-9" stroke-linecap="round"/><path stroke-linejoin="round" d="M36 35h7v10h-7z"/><path d="M44 35h-9" stroke-linecap="round"/><path stroke-linejoin="round" d="M66 35h7v10h-7z"/><path d="M74 35h-9" stroke-linecap="round"/><path stroke-linejoin="round" d="M66 57h7v10h-7z"/><path d="M74 57h-9" stroke-linecap="round"/><path stroke-linejoin="round" d="M36 57h7v10h-7z"/><path d="M44 57h-9" stroke-linecap="round"/></g></svg>
