<svg width="84" height="69" viewBox="0 0 84 69" xmlns="http://www.w3.org/2000/svg"><g fill="none" fill-rule="evenodd"><path d="M-8-15H92V85H-8z"/><g stroke="#2E2D36" stroke-width="2" stroke-linejoin="round"><path d="M15.701 10h-3.7a6 6 0 0 0-6 6v20h72V16a6 6 0 0 0-6-6h-3.703c-1.166 0-2.289-.494-3.029-1.395C61.616 4.152 52.574 1 42 1 31.425 1 22.384 4.152 18.73 8.605 17.99 9.506 16.867 10 15.701 10zM70 58H14.013a3.999 3.999 0 0 0-4 4.012l.004 1.474A4.5 4.5 0 0 1 5.517 68H5.5A4.5 4.5 0 0 1 1 63.5V42a6 6 0 0 1 6-6h70a6 6 0 0 1 6 6v21.5a4.5 4.5 0 0 1-9 0V62a4 4 0 0 0-4-4z"/><path d="M38.66 36a5.98 5.98 0 0 0 .34-1.993v-3.014A5.992 5.992 0 0 0 33.006 25H20.995A5.994 5.994 0 0 0 15 30.993v3.014c0 .699.12 1.37.34 1.993h23.32zm30 0a5.98 5.98 0 0 0 .34-1.993v-3.014A5.992 5.992 0 0 0 63.006 25H50.995A5.994 5.994 0 0 0 45 30.993v3.014c0 .699.12 1.37.34 1.993h23.32zM0 50h84"/></g></g></svg>
