<svg width="94" height="69" viewBox="0 0 94 69" xmlns="http://www.w3.org/2000/svg" xmlns:xlink="http://www.w3.org/1999/xlink"><defs><path d="M9 50.71c0-.554.33-1.303.736-1.67l18.528-16.762c.407-.367 1.083-.369 1.496-.016l18.48 15.787c.42.358.76 1.09.76 1.64v38.308H10.009A1.011 1.011 0 0 1 9 86.993V50.71z" id="a"/><mask id="i" x="-2" y="-2" width="44" height="59.997"><path fill="#fff" d="M7 30h44v59.997H7z"/><use xlink:href="#a"/></mask><rect id="b" x="24" y="70" width="10" height="18" rx="1"/><mask id="j" x="-2" y="-2" width="14" height="22"><path fill="#fff" d="M22 68h14v22H22z"/><use xlink:href="#b"/></mask><path id="c" d="M17 54h6v6h-6z"/><mask id="k" x="-2" y="-2" width="10" height="10"><path fill="#fff" d="M15 52h10v10H15z"/><use xlink:href="#c"/></mask><path id="d" d="M59 54h6v6h-6z"/><mask id="l" x="-2" y="-2" width="10" height="10"><path fill="#fff" d="M57 52h10v10H57z"/><use xlink:href="#d"/></mask><path id="e" d="M35 54h6v6h-6z"/><mask id="m" x="-2" y="-2" width="10" height="10"><path fill="#fff" d="M33 52h10v10H33z"/><use xlink:href="#e"/></mask><path id="f" d="M77 54h6v6h-6z"/><mask id="n" x="-2" y="-2" width="10" height="10"><path fill="#fff" d="M75 52h10v10H75z"/><use xlink:href="#f"/></mask><path d="M51 50.71c0-.554.33-1.303.736-1.67l18.528-16.762c.407-.367 1.083-.369 1.496-.016l18.48 15.787c.42.358.76 1.09.76 1.64v38.308H52.009A1.011 1.011 0 0 1 51 86.993V50.71z" id="g"/><mask id="o" x="-2" y="-2" width="44" height="59.997"><path fill="#fff" d="M49 30h44v59.997H49z"/><use xlink:href="#g"/></mask><rect id="h" x="66" y="70" width="10" height="18" rx="1"/><mask id="p" x="-2" y="-2" width="14" height="22"><path fill="#fff" d="M64 68h14v22H64z"/><use xlink:href="#h"/></mask></defs><g transform="translate(-3 -21)" fill="none" fill-rule="evenodd"><use stroke="#ffffff" mask="url(#i)" stroke-width="4" xlink:href="#a"/><use stroke="#ffffff" mask="url(#j)" stroke-width="4" stroke-linejoin="round" xlink:href="#b"/><use stroke="#ffffff" mask="url(#k)" stroke-width="4" stroke-linejoin="round" xlink:href="#c"/><use stroke="#ffffff" mask="url(#l)" stroke-width="4" stroke-linejoin="round" xlink:href="#d"/><use stroke="#ffffff" mask="url(#m)" stroke-width="4" stroke-linejoin="round" xlink:href="#e"/><use stroke="#ffffff" mask="url(#n)" stroke-width="4" stroke-linejoin="round" xlink:href="#f"/><use stroke="#ffffff" mask="url(#o)" stroke-width="4" transform="matrix(-1 0 0 1 142 0)" xlink:href="#g"/><use stroke="#ffffff" mask="url(#p)" stroke-width="4" stroke-linejoin="round" transform="matrix(-1 0 0 1 142 0)" xlink:href="#h"/><path stroke="#ffffff" stroke-width="2" stroke-linecap="round" stroke-linejoin="round" d="M50 40.172L29 22 4 45l3.377 4M50 40.172L71 22l25 23-3.377 4"/><path d="M0 0h100v100H0z"/></g></svg>
