<?xml version="1.0" encoding="UTF-8"?>
<svg width="18px" height="17px" viewBox="0 0 18 17" version="1.1" xmlns="http://www.w3.org/2000/svg" xmlns:xlink="http://www.w3.org/1999/xlink">
    <g id="02-Apartment" stroke="none" stroke-width="1" fill="none" fill-rule="evenodd">
        <g id="02-01-02-Apartment-details-sale" transform="translate(-233.000000, -545.000000)">
            <g id="Group-14" transform="translate(230.000000, 454.000000)">
                <g id="Group-13" transform="translate(0.000000, 88.000000)">
                    <g id="Icons/Property/built">
                        <g id="Group-14">
                            <rect id="Rectangle" x="0" y="0" width="24" height="24"></rect>
                            <path d="M15,3 C16.1045695,3 17,3.8954305 17,5 L17,5 L17,8 L17,8 L19,8 C20.1045695,8 21,8.8954305 21,10 L21,10 L21,13 C21,14.1045695 20.1045695,15 19,15 L19,15 L17,15 L17,18 C17,19.1045695 16.1045695,20 15,20 L15,20 L5,20 C3.8954305,20 3,19.1045695 3,18 L3,18 L3,15 C3,13.8954305 3.8954305,13 5,13 L5,13 L7,13 L7,10 L7,10 L5,10 C3.8954305,10 3,9.1045695 3,8 L3,8 L3,5 C3,3.8954305 3.8954305,3 5,3 L5,3 Z M15,15 L5,15 L5,18 L15,18 L15,15 Z M19,10 L9,10 L9,13 L19,13 L19,10 Z M15,5 L5,5 L5,8 L15,8 L15,5 Z" id="Combined-Shape" fill="#FFFFFF"></path>
                        </g>
                    </g>
                </g>
            </g>
        </g>
    </g>
</svg>
