<svg width="10px" height="18px" viewBox="0 0 10 18" version="1.1" xmlns="http://www.w3.org/2000/svg" xmlns:xlink="http://www.w3.org/1999/xlink">
    <g id="Symbols" stroke="none" stroke-width="1" fill="none" fill-rule="evenodd">
        <g id="Icons/Amenities/White/air-conditioning" transform="translate(-7.000000, -2.000000)">
            <g id="Group-17">
                <rect id="Rectangle-" x="0" y="0" width="24" height="24"></rect>
                <g id="icon_heating" transform="translate(7.000000, 2.000000)" fill="#FFFFFF">
                    <g id="Слой_1">
                        <path d="M8,9 L8,3 C8,1.34314575 6.65685425,0 5,0 C3.34314575,0 2,1.34314575 2,3 L2,9 C0.444775808,10.1752964 -0.285589334,12.147305 0.128871275,14.0521058 C0.543331885,15.9569066 2.02704163,17.4471605 3.93,17.87 C4.28128614,17.9497897 4.63982764,17.9933508 5,18 C7.15215204,18 9.06284626,16.6228495 9.74341649,14.5811388 C10.4239867,12.5394281 9.72172163,10.2912912 8,9 L8,9 Z M5,16 C4.77819909,15.9990422 4.55706731,15.9755889 4.34,15.93 C3.17898686,15.6655329 2.2842869,14.7394399 2.06,13.57 C1.83042256,12.4317103 2.27836717,11.2631591 3.21,10.57 L4,10 L4,3 C4,2.44771525 4.44771525,2 5,2 C5.55228475,2 6,2.44771525 6,3 L6,10 L6.79,10.6 C7.54918733,11.1644663 7.99764296,12.0539651 8,13 C8,14.6568542 6.65685425,16 5,16 L5,16 Z" id="Shape"></path>
                        <circle id="Oval" cx="5" cy="13" r="1"></circle>
                    </g>
                </g>
            </g>
        </g>
    </g>
</svg>
