<svg width="16px" height="15px" viewBox="0 0 16 15" version="1.1" xmlns="http://www.w3.org/2000/svg" xmlns:xlink="http://www.w3.org/1999/xlink">
    <g id="Symbols" stroke="none" stroke-width="1" fill="none" fill-rule="evenodd">
        <g id="Icons/Amenities/White/heating" transform="translate(-4.000000, -5.000000)">
            <g id="Group-2">
                <polygon id="Fill-1" points="0 24 24 24 24 0 0 0"></polygon>
                <g id="Group" transform="translate(4.000000, 5.000000)" fill="#FFFFFF">
                    <path d="M13.5527864,0.0989609984 C14.0467649,-0.132591845 14.6474379,0.0551188229 14.8944272,0.51822451 C15.6286262,1.89485022 16,3.2875044 16,4.68749487 C16,5.66952643 15.7171457,6.37666355 14.8944272,7.91926351 C14.2171457,9.18916868 14,9.73203385 14,10.3125051 C14,11.4125192 14.2952929,12.5198696 14.8944272,13.6432485 C15.1414164,14.1063542 14.9411921,14.6694862 14.4472136,14.901039 C13.9532351,15.1325918 13.3525621,14.9448812 13.1055728,14.4817755 C12.3713738,13.1051498 12,11.7124956 12,10.3125051 C12,9.33047357 12.2828543,8.62333645 13.1055728,7.08073649 C13.7828543,5.81083132 14,5.26796615 14,4.68749487 C14,3.58748077 13.7047071,2.48013038 13.1055728,1.35675153 C12.8585836,0.893645845 13.0588079,0.330513842 13.5527864,0.0989609984 Z M7.5527864,0.0989609984 C8.0467649,-0.132591845 8.64743794,0.0551188229 8.89442719,0.51822451 C9.62862623,1.89485022 10,3.2875044 10,4.68749487 C10,5.66952643 9.71714567,6.37666355 8.89442719,7.91926351 C8.21714567,9.18916868 8,9.73203385 8,10.3125051 C8,11.4125192 8.2952929,12.5198696 8.89442719,13.6432485 C9.14141644,14.1063542 8.94119209,14.6694862 8.4472136,14.901039 C7.9532351,15.1325918 7.35256206,14.9448812 7.10557281,14.4817755 C6.37137377,13.1051498 6,11.7124956 6,10.3125051 C6,9.33047357 6.28285433,8.62333645 7.10557281,7.08073649 C7.78285433,5.81083132 8,5.26796615 8,4.68749487 C8,3.58748077 7.7047071,2.48013038 7.10557281,1.35675153 C6.85858356,0.893645845 7.05880791,0.330513842 7.5527864,0.0989609984 Z M1.5527864,0.0989609984 C2.0467649,-0.132591845 2.64743794,0.0551188229 2.89442719,0.51822451 C3.62862623,1.89485022 4,3.2875044 4,4.68749487 C4,5.66952643 3.71714567,6.37666355 2.89442719,7.91926351 C2.21714567,9.18916868 2,9.73203385 2,10.3125051 C2,11.4125192 2.2952929,12.5198696 2.89442719,13.6432485 C3.14141644,14.1063542 2.94119209,14.6694862 2.4472136,14.901039 C1.9532351,15.1325918 1.35256206,14.9448812 1.10557281,14.4817755 C0.371373768,13.1051498 0,11.7124956 0,10.3125051 C0,9.33047357 0.282854329,8.62333645 1.10557281,7.08073649 C1.78285433,5.81083132 2,5.26796615 2,4.68749487 C2,3.58748077 1.7047071,2.48013038 1.10557281,1.35675153 C0.85858356,0.893645845 1.05880791,0.330513842 1.5527864,0.0989609984 Z" id="Combined-Shape"></path>
                </g>
            </g>
        </g>
    </g>
</svg>
