<svg width="16px" height="16px" viewBox="0 0 16 16" version="1.1" xmlns="http://www.w3.org/2000/svg" xmlns:xlink="http://www.w3.org/1999/xlink">
    <g id="Symbols" stroke="none" stroke-width="1" fill="none" fill-rule="evenodd">
        <g id="Icons/Amenities/White/parking" transform="translate(-4.000000, -4.000000)">
            <g id="Group-16">
                <rect id="Rectangle-" x="0" y="0" width="24" height="24"></rect>
                <g id="icon_parking" transform="translate(4.000000, 4.000000)" fill="#FFFFFF">
                    <g id="Слой_1">
                        <path d="M13.7,0 L2.3,0 C1.02974508,0 0,1.02974508 0,2.3 L0,13.7 C-4.4408921e-16,14.3099979 0.242320733,14.8950119 0.673654403,15.3263456 C1.10498807,15.7576793 1.69000207,16 2.3,16 L13.7,16 C14.3099979,16 14.8950119,15.7576793 15.3263456,15.3263456 C15.7576793,14.8950119 16,14.3099979 16,13.7 L16,2.3 C16,1.69000207 15.7576793,1.10498807 15.3263456,0.673654403 C14.8950119,0.242320733 14.3099979,-8.8817842e-16 13.7,0 L13.7,0 Z M14,13.7 C14,13.7795649 13.9683929,13.8558711 13.912132,13.912132 C13.8558711,13.9683929 13.7795649,14 13.7,14 L2.3,14 C2.22043505,14 2.14412888,13.9683929 2.08786797,13.912132 C2.03160705,13.8558711 2,13.7795649 2,13.7 L2,2.3 C2,2.13431458 2.13431458,2 2.3,2 L13.7,2 C13.8656854,2 14,2.13431458 14,2.3 L14,13.7 L14,13.7 Z" id="Shape"></path>
                        <path d="M9,4 L6,4 C5.44771525,4 5,4.44771525 5,5 L5,12 C5,12.5522847 5.44771525,13 6,13 C6.55228475,13 7,12.5522847 7,12 L7,11 L9,11 C10.6568542,11 12,9.65685425 12,8 L12,7 C12,5.34314575 10.6568542,4 9,4 L9,4 Z M10,8 C10,8.55228475 9.55228475,9 9,9 L7,9 L7,6 L9,6 C9.55228475,6 10,6.44771525 10,7 L10,8 L10,8 Z" id="Shape"></path>
                    </g>
                </g>
            </g>
        </g>
    </g>
</svg>
