<?xml version="1.0" encoding="UTF-8"?>
<svg width="60px" height="40px" viewBox="0 0 60 40" version="1.1" xmlns="http://www.w3.org/2000/svg" xmlns:xlink="http://www.w3.org/1999/xlink">
    <title>Combined Shape</title>
    <g id="Symbols" stroke="none" stroke-width="1" fill="none" fill-rule="evenodd">
        <g id="Group" transform="translate(0.000000, -10.000000)" fill="#FFFFFF">
            <path d="M7.66455693,23.8345863 C8.31861413,24.7246891 8.12726138,25.976478 7.2371586,26.6305352 C5.06801766,28.2244436 4,29.9034239 4,31.5 C4,33.417681 5.47527027,35.3076369 8.03373495,36.9440799 L8.49639315,37.2301863 C9.0490931,37.5607997 9.64672941,37.8801044 10.2858805,38.1861299 L10.8438114,38.4451394 C11.0331241,38.5303613 11.2257459,38.6144532 11.4215972,38.6973691 L12.0187591,38.9425433 C12.5243344,39.1438386 13.0495944,39.3374972 13.5932921,39.5228009 L14.2544997,39.7411091 C14.4777991,39.812511 14.7039687,39.8825302 14.9329287,39.9511208 L15.6281004,40.1525603 L16.3395357,40.345152 C16.5793383,40.4078439 16.8217717,40.4690152 17.0667561,40.52862 L17.8092825,40.7026886 C18.0592892,40.7591143 18.311767,40.8139274 18.5666363,40.8670821 L19.3383386,41.0215247 L20.1239105,41.1657406 L20.9228732,41.2994542 C21.1913727,41.3422444 21.4620243,41.3832382 21.734748,41.4223897 L22.5590559,41.5342714 L23.3953183,41.6348234 C24.5654496,41.7665484 25.7688184,41.8646601 26.9996433,41.9258291 L27,40 C27,38.4026092 28.7802909,37.4498264 30.1094004,38.3358994 L30.1094004,38.3358994 L36.1094004,42.3358994 C37.2968665,43.1275435 37.2968665,44.8724565 36.1094004,45.6641006 L36.1094004,45.6641006 L30.1094004,49.6641006 C28.7802909,50.5501736 27,49.5973908 27,48 L27,48 L26.9998619,45.9321337 C26.2218736,45.8967102 25.4522203,45.847596 24.6921165,45.7852074 L23.7562508,45.7012352 C23.6011145,45.6861197 23.4464058,45.6704466 23.2921356,45.6542196 L22.3718601,45.5502389 C22.0669121,45.5133824 21.7638029,45.4743391 21.4626179,45.4331385 L20.5649208,45.3030937 C20.1190438,45.2348644 19.6776882,45.1618467 19.2411418,45.0841392 L18.3745467,44.9225005 C18.087876,44.8665561 17.8034281,44.8085565 17.5212882,44.7485311 L16.6818781,44.5624064 L15.8568283,44.3643018 C6.45328847,42.0178861 0,37.3297357 0,31.5 C0,28.4606444 1.7628718,25.6893166 4.86860795,23.4071879 C5.75871073,22.7531307 7.01049973,22.9444835 7.66455693,23.8345863 Z M55.1814141,23.4440726 C58.2560639,25.7191259 60,28.4773389 60,31.5 C60,35.17447 57.4427585,38.4288256 53.0622881,40.9298935 C52.1030592,41.4775737 50.8814679,41.1439475 50.3337878,40.1847185 C49.7861076,39.2254896 50.1197338,38.0038983 51.0789628,37.4562182 C54.3387977,35.5949869 56,33.4809343 56,31.5 C56,29.9132903 54.9454732,28.2454485 52.8021688,26.659534 C51.9142436,26.0025235 51.7270503,24.7501058 52.3840607,23.8621807 C53.0410712,22.9742555 54.2934889,22.7870622 55.1814141,23.4440726 Z M30,10 C33.2079934,10 36.868536,11.2197764 40.1146561,12.9586191 L40.1146561,12.9586191 L40.7001001,13.2803361 C40.9903458,13.4438985 41.2767322,13.6113997 41.5586081,13.7823133 L41.5586081,13.7823133 L42.1161527,14.1285343 C43.3102991,14.8878619 44.4115923,15.704676 45.3670303,16.5361389 L45.3670303,16.5361389 L45.7974521,16.9207751 C47.755955,18.7191425 49,20.554893 49,22 C49,23.445107 47.755955,25.2808575 45.7974521,27.0792249 L45.7974521,27.0792249 L45.3670303,27.4638611 C44.4115923,28.295324 43.3102991,29.1121381 42.1161527,29.8714657 L42.1161527,29.8714657 L41.5586081,30.2176867 C41.2767322,30.3886003 40.9903458,30.5561015 40.7001001,30.7196639 L40.7001001,30.7196639 L40.1146561,31.0413809 C36.868536,32.7802236 33.2079934,34 30,34 C26.7920066,34 23.131464,32.7802236 19.8853439,31.0413809 L19.8853439,31.0413809 L19.2998999,30.7196639 C19.0096542,30.5561015 18.7232678,30.3886003 18.4413919,30.2176867 L18.4413919,30.2176867 L17.8838473,29.8714657 C16.6897009,29.1121381 15.5884077,28.295324 14.6329697,27.4638611 L14.6329697,27.4638611 L14.2025479,27.0792249 C12.244045,25.2808575 11,23.445107 11,22 C11,20.554893 12.244045,18.7191425 14.2025479,16.9207751 L14.2025479,16.9207751 L14.6329697,16.5361389 C15.5884077,15.704676 16.6897009,14.8878619 17.8838473,14.1285343 L17.8838473,14.1285343 L18.4413919,13.7823133 C18.7232678,13.6113997 19.0096542,13.4438985 19.2998999,13.2803361 L19.2998999,13.2803361 L19.8853439,12.9586191 C23.131464,11.2197764 26.7920066,10 30,10 Z M30,14 C26.6425341,14 22.8750769,15.4774342 19.4658664,17.8839357 C18.0656432,18.8723286 16.8279446,19.9550815 15.9464061,20.9329225 C15.5636556,21.3574861 15.2711753,21.7379675 15.091411,22.03405 L15.091411,22.03405 L15.113,22 L15.1752884,22.0978922 C15.3263675,22.3260163 15.5333189,22.5942625 15.7879624,22.8879381 L15.7879624,22.8879381 L15.9464061,23.0670775 C16.8279446,24.0449185 18.0656432,25.1276714 19.4658664,26.1160643 C22.8750769,28.5225658 26.6425341,30 30,30 C33.3574659,30 37.1249231,28.5225658 40.5341336,26.1160643 C41.9343568,25.1276714 43.1720554,24.0449185 44.0535939,23.0670775 C44.4363444,22.6425139 44.7288247,22.2620325 44.908589,21.96595 L44.908589,21.96595 L44.886,22 L44.8247116,21.9021078 C44.6736325,21.6739837 44.4666811,21.4057375 44.2120376,21.1120619 L44.2120376,21.1120619 L44.0535939,20.9329225 C43.1720554,19.9550815 41.9343568,18.8723286 40.5341336,17.8839357 C37.1249231,15.4774342 33.3574659,14 30,14 Z M30,16 C33.3137085,16 36,18.6862915 36,22 C36,25.3137085 33.3137085,28 30,28 C26.6862915,28 24,25.3137085 24,22 C24,18.6862915 26.6862915,16 30,16 Z M30,20 C28.8954305,20 28,20.8954305 28,22 C28,23.1045695 28.8954305,24 30,24 C31.1045695,24 32,23.1045695 32,22 C32,20.8954305 31.1045695,20 30,20 Z" id="Combined-Shape"></path>
        </g>
    </g>
</svg>