<svg width="16" height="20" viewBox="0 0 16 20" xmlns="http://www.w3.org/2000/svg"><g fill="none" fill-rule="evenodd"><rect fill="#7B53C1" x="7" y="7" width="2" height="2" rx="1"/><path d="M7.162 17.975l.042.036c.435.396 1.172.399 1.646-.04a21.453 21.453 0 0 0 .958-.86 24.41 24.41 0 0 0 2.153-2.335c1.914-2.377 3.046-4.765 3.039-6.96C14.989 4.052 11.867 1 8 1S1.012 4.052 1 7.816c-.007 2.175 1.127 4.56 3.044 6.945a24.814 24.814 0 0 0 2.865 2.997c.124.11.211.183.253.217z" stroke="#7B53C1" stroke-width="2"/><path d="M-2 0h20v20H-2z"/></g></svg>